<?xml version="1.0" encoding="utf-8"?>
<!-- Generator: Adobe Illustrator 27.9.0, SVG Export Plug-In . SVG Version: 6.00 Build 0)  -->
<svg version="1.1"
	 id="svg106" xmlns:inkscape="http://www.inkscape.org/namespaces/inkscape" xmlns:svg="http://www.w3.org/2000/svg" xmlns:cc="http://creativecommons.org/ns#" xmlns:dc="http://purl.org/dc/elements/1.1/" xmlns:sodipodi="http://sodipodi.sourceforge.net/DTD/sodipodi-0.dtd" xmlns:rdf="http://www.w3.org/1999/02/22-rdf-syntax-ns#" inkscape:version="0.92.5 (2060ec1f9f, 2020-04-08)" sodipodi:docname="ARE_CIRE_V2_BLACK.svg"
	 xmlns="http://www.w3.org/2000/svg" xmlns:xlink="http://www.w3.org/1999/xlink" x="0px" y="0px" width="802.4px" height="127.6px"
	 viewBox="0 0 802.4 127.6" style="enable-background:new 0 0 802.4 127.6;" xml:space="preserve">
<style type="text/css">
	.st0{fill:#FFFFFF;}
</style>
<sodipodi:namedview  bordercolor="#666666" borderopacity="1" gridtolerance="10" guidetolerance="10" id="namedview108" inkscape:current-layer="svg106" inkscape:cx="72.826896" inkscape:cy="58.5135" inkscape:pageopacity="0" inkscape:pageshadow="2" inkscape:window-height="1017" inkscape:window-maximized="0" inkscape:window-width="1078" inkscape:window-x="1094" inkscape:window-y="1097" inkscape:zoom="0.37760774" objecttolerance="10" pagecolor="#ffffff" showgrid="false">
	</sodipodi:namedview>
<g id="Layer_2_00000152234430409189768230000009500170930578408887_">
	<g id="Layer_1-2">
		<g id="b">
			<g id="c">
				<polygon id="polygon2" class="st0" points="604.5,68.6 603.6,68.6 602.8,68.6 602.1,68.5 601.4,68.4 601.1,68.3 600.8,68.2 
					600.6,68.1 600.3,68 600.1,67.9 599.9,67.8 599.7,67.6 599.5,67.5 599.4,67.3 599.2,67.1 599.1,67 599,66.8 598.8,66.6 
					598.7,66.3 598.7,66.1 598.6,65.9 598.5,65.3 598.4,64.7 598.3,64.1 598.3,63.4 598.3,35.2 598.3,34.4 598.4,33.7 598.4,33.3 
					598.5,33 598.5,32.8 598.6,32.5 598.7,32.2 598.8,32 598.9,31.7 599.1,31.5 599.2,31.3 599.3,31.1 599.5,31 599.7,30.8 
					599.9,30.7 600.1,30.6 600.3,30.4 600.5,30.3 600.8,30.2 601.1,30.1 601.3,30.1 601.6,30 602.2,29.9 603,29.9 603.7,29.8 
					604.5,29.8 604.5,28.5 586.8,28.5 586.8,29.8 587.5,29.9 588.2,29.9 588.8,30 589.3,30.1 589.8,30.3 590.3,30.5 590.5,30.6 
					590.7,30.7 590.8,30.8 591,30.9 591.2,31.1 591.3,31.2 591.5,31.4 591.6,31.6 591.7,31.7 591.8,31.9 591.9,32.1 592,32.3 
					592.1,32.8 592.2,33.4 592.2,34 592.2,34.6 592.2,62.9 592.2,63.7 592.2,64.4 592.1,65.1 592,65.7 592,65.9 591.9,66.2 
					591.8,66.4 591.7,66.6 591.6,66.8 591.5,67 591.3,67.2 591.2,67.4 591,67.5 590.9,67.7 590.7,67.8 590.5,67.9 590.3,68 
					590,68.1 589.8,68.2 589.5,68.3 588.9,68.4 588.3,68.5 587.5,68.6 586.8,68.6 586.8,69.9 604.5,69.9 				"/>
				<polygon id="polygon4" class="st0" points="466.4,69.6 467.3,69.5 468.2,69.3 469,69.2 469.8,69.1 470.6,69.1 471,69.1 
					471.5,69.1 471.9,69.1 472.3,69.2 472.7,68.6 473,68.1 473.4,67.6 473.7,67 474.4,65.7 475,64.4 475.6,63.2 476.1,61.9 
					476.6,60.6 477,59.4 475.6,59.4 475.2,60.2 474.7,60.9 474.2,61.6 473.7,62.2 473.1,62.8 472.6,63.3 472.1,63.9 471.6,64.4 
					471,64.9 470.5,65.3 469.9,65.7 469.3,66.1 468.8,66.5 468.2,66.8 467.6,67.1 467,67.4 466.4,67.7 465.8,67.9 465.2,68.1 
					464.6,68.3 464.1,68.5 463.5,68.6 462.9,68.8 462.3,68.9 461.7,69 461.1,69.1 460.6,69.2 460,69.2 458.9,69.3 457.8,69.3 
					456.7,69.3 455.7,69.2 454.7,69.1 453.7,68.9 452.7,68.7 451.7,68.4 450.8,68.1 449.8,67.7 448.9,67.3 448,66.9 447.2,66.4 
					446.4,65.9 445.5,65.3 444.7,64.7 444,64.1 443.2,63.4 442.6,62.7 441.9,61.9 441.3,61.1 440.7,60.3 440.2,59.5 439.7,58.6 
					439.2,57.7 438.8,56.8 438.4,55.8 438.1,54.8 437.8,53.8 437.5,52.8 437.4,51.7 437.2,50.6 437.1,49.5 437.1,48.4 437.1,47.4 
					437.2,46.4 437.3,45.4 437.5,44.4 437.7,43.4 437.9,42.5 438.2,41.6 438.5,40.7 438.9,39.8 439.3,39 439.7,38.2 440.2,37.4 
					440.7,36.7 441.2,36 441.8,35.3 442.5,34.6 443.1,34 443.8,33.4 444.5,32.9 445.3,32.3 446.1,31.9 446.9,31.4 447.8,31 
					448.7,30.6 449.6,30.3 450.6,30 451.6,29.8 452.6,29.6 453.6,29.4 454.7,29.3 455.8,29.2 457,29.2 457.7,29.2 458.4,29.3 
					459.2,29.3 459.9,29.4 460.6,29.5 461.3,29.6 461.9,29.8 462.6,30 463.2,30.1 463.9,30.3 464.5,30.6 465.1,30.8 465.7,31.1 
					466.3,31.4 466.9,31.7 467.4,32 467.9,32.3 468.4,32.7 468.9,33.1 469.4,33.5 469.9,33.9 470.3,34.3 470.7,34.8 471.1,35.2 
					471.5,35.7 471.9,36.2 472.2,36.7 472.6,37.2 472.9,37.8 473.1,38.3 473.4,38.9 473.6,39.5 475,39.5 474.4,29.8 473.3,29.8 
					473.2,29.9 473.1,30 473,30 472.9,30.1 472.7,30.1 472.5,30.2 472.2,30.2 472,30.2 471.5,30.2 471,30.1 470.5,30 469.9,29.8 
					468.5,29.4 466.9,28.9 465.9,28.6 464.9,28.4 463.7,28.2 462.5,28 461.2,27.8 459.7,27.7 459,27.6 458.2,27.6 457.4,27.5 
					456.5,27.5 455.1,27.6 453.7,27.6 452.3,27.8 451,28 449.7,28.2 448.4,28.5 447.2,28.8 446,29.2 444.8,29.6 443.6,30.1 
					442.5,30.6 441.5,31.2 440.5,31.8 439.5,32.4 438.5,33.1 437.7,33.8 436.8,34.6 436,35.4 435.2,36.2 434.5,37 433.9,38 
					433.2,38.9 432.7,39.8 432.2,40.8 431.7,41.9 431.4,42.9 431,44 430.8,45.1 430.5,46.2 430.4,47.4 430.3,48.5 430.2,49.8 
					430.3,50.9 430.4,52 430.5,53.1 430.7,54.2 431,55.2 431.3,56.3 431.7,57.3 432.2,58.2 432.6,59.2 433.2,60.1 433.8,61 
					434.4,61.9 435.1,62.7 435.8,63.5 436.6,64.2 437.5,65 438.3,65.7 439.2,66.3 440.2,66.9 441.2,67.5 442.2,68 443.3,68.5 
					444.4,69 445.5,69.4 446.7,69.7 447.9,70.1 449.1,70.3 450.4,70.6 451.7,70.7 453.1,70.8 454.4,70.9 455.8,70.9 456.6,70.9 
					457.4,70.9 458.1,70.9 458.8,70.8 460.1,70.7 461.4,70.6 462.5,70.4 463.6,70.2 464.6,70 465.5,69.8 				"/>
				<polygon id="polygon6" class="st0" points="498.6,68.6 498.4,68.6 497.5,68.6 496.7,68.5 496.4,68.5 496,68.5 495.7,68.4 
					495.4,68.3 495.1,68.2 494.8,68.1 494.6,68 494.4,67.9 494.1,67.8 494,67.7 493.8,67.5 493.6,67.3 493.5,67.1 493.3,67 
					493.2,66.8 493.1,66.5 493,66.3 492.9,66.1 492.8,65.8 492.7,65.5 492.6,64.9 492.6,64.3 492.5,63.6 492.5,62.8 492.5,50.1 
					521.2,50.1 521.2,63.6 521.2,64.3 521.2,64.9 521.1,65.4 521,65.9 520.9,66.1 520.8,66.3 520.8,66.6 520.7,66.7 520.5,66.9 
					520.4,67.1 520.3,67.3 520.1,67.4 519.9,67.6 519.8,67.7 519.6,67.8 519.3,67.9 519.1,68.1 518.9,68.2 518.6,68.3 518.4,68.3 
					517.7,68.5 517,68.5 516.3,68.6 515.4,68.6 513.2,68.6 513.2,69.9 533.9,69.9 533.9,68.6 533.1,68.6 532.3,68.6 531.6,68.6 
					531,68.5 530.4,68.4 530.1,68.3 529.8,68.2 529.6,68.1 529.4,68 529.2,67.9 529,67.8 528.8,67.7 528.6,67.5 528.4,67.3 
					528.3,67.2 528.1,67 528,66.8 527.9,66.5 527.8,66.3 527.7,66 527.6,65.7 527.5,65.4 527.5,65.1 527.4,64.8 527.4,64.4 
					527.3,63.7 527.3,62.8 527.3,35.3 527.3,34.5 527.4,33.8 527.4,33.2 527.5,32.7 527.6,32.4 527.7,32.2 527.8,32 527.9,31.8 
					528,31.6 528.1,31.4 528.3,31.2 528.4,31 528.6,30.9 528.8,30.7 529,30.6 529.2,30.5 529.4,30.4 529.6,30.3 529.9,30.2 
					530.1,30.1 530.7,30 531.4,29.9 532.1,29.9 532.9,29.8 532.9,28.5 514.1,28.5 514.1,29.8 515.4,29.8 516.3,29.8 517,29.9 
					517.7,30 518.2,30.1 518.5,30.1 518.8,30.2 519,30.3 519.2,30.4 519.5,30.5 519.7,30.6 519.9,30.8 520,30.9 520.2,31.1 
					520.3,31.2 520.5,31.4 520.6,31.6 520.7,31.8 520.8,32 520.9,32.2 521,32.4 521.1,32.9 521.2,33.5 521.2,34 521.2,34.7 
					521.2,47.8 492.5,47.8 492.5,36.2 492.5,35.3 492.6,34.5 492.6,33.7 492.7,33 492.8,32.7 492.9,32.5 493,32.2 493.1,31.9 
					493.2,31.7 493.3,31.5 493.5,31.3 493.6,31.1 493.8,30.9 494,30.7 494.2,30.6 494.4,30.5 494.6,30.4 494.9,30.2 495.2,30.1 
					495.5,30.1 495.8,30 496.1,30 496.5,29.9 496.8,29.9 497.7,29.8 498.6,29.8 498.6,28.5 481.2,28.5 481.2,29.8 481.9,29.9 
					482.6,30 483.1,30 483.7,30.2 484.2,30.3 484.6,30.5 484.8,30.6 485,30.7 485.2,30.8 485.3,31 485.5,31.1 485.6,31.2 
					485.7,31.4 485.8,31.6 485.9,31.8 486,32 486.1,32.1 486.2,32.4 486.3,32.8 486.4,33.3 486.4,33.9 486.5,34.5 486.5,63.8 
					486.4,64.4 486.4,65.1 486.3,65.6 486.1,66.1 486.1,66.4 486,66.6 485.9,66.8 485.8,67 485.6,67.2 485.5,67.3 485.4,67.5 
					485.2,67.6 485,67.8 484.8,67.9 484.6,68 484.4,68.1 484.2,68.2 483.9,68.3 483.7,68.3 483.4,68.4 482.8,68.5 482.1,68.6 
					481.4,68.6 480.7,68.6 480.2,68.6 480.2,69.9 498.6,69.9 				"/>
				<polygon id="polygon8" class="st0" points="754.9,60 753.6,60 753.3,61 752.9,62 752.6,62.8 752.2,63.6 752,63.9 751.9,64.3 
					751.7,64.6 751.5,64.9 751.2,65.1 751,65.4 750.8,65.7 750.6,65.9 750.4,66.1 750.1,66.3 749.8,66.5 749.6,66.6 749.3,66.8 
					749,66.9 748.7,67 748.3,67.1 748,67.2 747.6,67.3 747.2,67.4 746.9,67.4 746,67.5 745.1,67.5 733.8,67.5 733.3,67.5 
					732.9,67.5 732.5,67.4 732.1,67.4 731.7,67.3 731.4,67.1 731.1,67 730.8,66.8 730.6,66.6 730.4,66.3 730.2,66 730.1,65.7 
					730,65.3 729.9,64.9 729.9,64.4 729.9,63.8 729.9,49.7 742.3,49.7 742.8,49.7 743.3,49.7 743.8,49.8 744.2,49.8 744.6,50 
					745,50.1 745.2,50.2 745.3,50.3 745.5,50.4 745.7,50.5 745.8,50.7 745.9,50.8 746.1,51 746.2,51.2 746.3,51.4 746.4,51.6 
					746.5,51.8 746.7,52.1 746.8,52.7 747,53.4 747.1,54.1 747.2,55 748.6,55 748.6,42.3 747.2,42.3 747.2,43 747.1,43.6 
					746.9,44.2 746.8,44.7 746.6,45.2 746.4,45.6 746.2,45.9 746,46.3 745.7,46.5 745.4,46.7 745.1,46.9 744.7,47 744.3,47.2 
					743.9,47.2 743.5,47.3 743,47.3 729.9,47.3 729.9,31 745.3,31 745.8,31 746.3,31 746.7,31.1 747.2,31.2 747.4,31.3 747.6,31.4 
					747.8,31.5 748,31.6 748.1,31.7 748.3,31.9 748.5,32.1 748.7,32.2 748.8,32.4 749,32.7 749.2,32.9 749.3,33.1 749.5,33.4 
					749.6,33.7 749.7,34 749.9,34.3 750.1,35.1 750.4,35.9 750.6,36.8 750.7,37.8 752.1,37.8 751.5,28.5 716.3,28.5 716.3,29.8 
					718,29.8 718.8,29.8 719.6,29.9 720,29.9 720.3,30 720.6,30 720.9,30.1 721.2,30.2 721.5,30.3 721.7,30.4 722,30.5 722.2,30.6 
					722.4,30.8 722.5,30.9 722.7,31.1 722.9,31.2 723,31.4 723.1,31.6 723.3,31.8 723.4,32 723.4,32.2 723.5,32.5 723.6,32.7 
					723.7,33.2 723.8,33.8 723.8,34.5 723.8,35.1 723.8,63.2 723.8,63.9 723.7,64.6 723.7,65.2 723.6,65.7 723.5,66 723.4,66.2 
					723.3,66.4 723.2,66.7 723,66.9 722.9,67.1 722.7,67.2 722.6,67.4 722.4,67.6 722.2,67.7 721.9,67.8 721.7,67.9 721.4,68.1 
					721.1,68.2 720.8,68.3 720.5,68.3 720.1,68.4 719.7,68.5 719.3,68.5 718.9,68.6 718,68.6 716.9,68.6 714.9,68.6 714.9,69.9 
					753.7,69.9 				"/>
				<polygon id="polygon10" class="st0" points="640.1,57.4 639.8,56.4 639.4,55.4 638.8,54.5 638.2,53.6 637.5,52.8 636.7,52 
					635.8,51.2 634.9,50.5 634,49.7 633,49 631.9,48.4 630.8,47.7 629.7,47.1 628.6,46.4 626.4,45.2 624.3,44 623.3,43.3 
					622.3,42.7 621.4,42.1 620.5,41.4 619.8,40.8 619,40.1 618.4,39.4 617.9,38.6 617.5,37.9 617.2,37.1 616.9,36.3 616.9,35.4 
					616.9,35 616.9,34.7 617,34.4 617,34.1 617.1,33.7 617.2,33.4 617.3,33.1 617.5,32.8 617.6,32.5 617.8,32.3 618,32 618.2,31.8 
					618.4,31.5 618.7,31.3 618.9,31.1 619.2,30.9 619.5,30.7 619.7,30.5 620,30.3 620.4,30.1 620.7,30 621,29.9 621.4,29.7 
					621.8,29.6 622.1,29.5 622.5,29.4 622.9,29.3 623.3,29.3 623.8,29.2 624.2,29.2 624.6,29.2 625.1,29.1 625.6,29.2 626,29.2 
					626.5,29.2 627,29.3 627.4,29.4 627.9,29.5 628.3,29.6 628.8,29.7 629.2,29.9 629.6,30 630.1,30.2 630.5,30.4 630.9,30.6 
					631.3,30.8 631.7,31 632.1,31.3 632.5,31.5 632.9,31.8 633.2,32.1 633.6,32.4 633.9,32.7 634.2,33 634.6,33.4 634.9,33.7 
					635.2,34.1 635.4,34.5 635.7,34.9 636,35.3 636.2,35.7 636.5,36.1 636.7,36.5 636.9,37 638.1,37 636.9,28.5 635.7,28.5 
					635.5,28.7 635.4,28.9 635.2,29 635.1,29.1 634.9,29.1 634.8,29.2 634.6,29.2 634.4,29.2 633.9,29.2 633.5,29.1 633,29 
					632.6,29 631.7,28.7 630.8,28.4 630.2,28.2 629.6,28.1 628.9,27.9 628.2,27.8 627.4,27.7 626.5,27.6 625.5,27.6 624.4,27.5 
					623.7,27.6 623.1,27.6 622.4,27.6 621.7,27.7 621.1,27.8 620.5,28 619.8,28.1 619.2,28.3 618.7,28.5 618.1,28.7 617.6,28.9 
					617,29.1 616.5,29.4 616,29.7 615.6,30 615.1,30.3 614.7,30.6 614.3,31 613.9,31.3 613.5,31.7 613.2,32.1 612.9,32.5 
					612.7,32.9 612.4,33.3 612.2,33.8 612,34.2 611.8,34.7 611.7,35.2 611.5,35.7 611.5,36.2 611.4,36.7 611.4,37.2 611.5,38.2 
					611.7,39.3 612,40.2 612.4,41.2 612.9,42.1 613.6,42.9 614.3,43.7 615.1,44.5 615.9,45.3 616.8,46 617.8,46.7 618.8,47.4 
					619.9,48.1 621,48.7 622,49.4 623.1,50 625.3,51.3 627.5,52.5 628.5,53.2 629.5,53.8 630.4,54.5 631.2,55.2 632,55.8 
					632.7,56.5 633.3,57.3 633.9,58 634.3,58.8 634.6,59.6 634.8,60.4 634.9,61.3 634.9,61.8 634.8,62.3 634.8,62.7 634.7,63.2 
					634.5,63.6 634.4,64 634.2,64.4 634,64.8 633.8,65.1 633.5,65.5 633.3,65.8 633,66.1 632.7,66.4 632.4,66.7 632,67 631.7,67.2 
					631.3,67.4 630.9,67.7 630.6,67.9 630.1,68.1 629.7,68.2 629.3,68.4 628.9,68.5 628.4,68.7 628,68.8 627.5,68.9 627.1,69 
					626.6,69 626.2,69.1 625.7,69.1 625.3,69.2 624.8,69.2 624.3,69.2 623.7,69.1 623.2,69.1 622.7,69 622.2,68.9 621.7,68.8 
					621.2,68.7 620.7,68.5 620.2,68.4 619.7,68.2 619.2,68 618.8,67.8 618.3,67.5 617.9,67.3 617.5,67 617,66.7 616.6,66.4 
					616.2,66.1 615.9,65.7 615.5,65.3 615.2,65 614.8,64.6 614.5,64.2 614.2,63.7 613.9,63.3 613.7,62.8 613.4,62.4 613.2,61.9 
					613,61.4 612.8,60.9 612.6,60.3 612.4,59.8 611,59.8 612.6,69.9 613.8,69.9 613.9,69.7 614.1,69.6 614.2,69.5 614.4,69.4 
					614.6,69.3 614.8,69.2 615,69.2 615.3,69.2 615.5,69.2 615.8,69.2 616.2,69.3 616.7,69.4 617.9,69.7 619.2,70.1 620,70.2 
					620.7,70.4 621.5,70.5 622.3,70.7 623.1,70.8 623.9,70.9 624.7,70.9 625.5,70.9 626.3,70.9 627,70.9 627.8,70.8 628.6,70.7 
					629.3,70.6 630,70.5 630.7,70.3 631.4,70.1 632.1,69.9 632.7,69.6 633.3,69.4 633.9,69.1 634.5,68.8 635.1,68.4 635.6,68.1 
					636.1,67.7 636.6,67.3 637.1,66.9 637.5,66.5 637.9,66 638.3,65.6 638.6,65.1 639,64.6 639.2,64.1 639.5,63.6 639.7,63 
					640,62.5 640.1,62 640.2,61.4 640.3,60.8 640.3,60.2 640.4,59.6 640.3,58.5 				"/>
				<path id="path12" class="st0" d="M573.7,68.5l0.5,0.3l0.5,0.3l0.6,0.3l0.5,0.3l0.6,0.2l0.6,0.2l0.6,0.2l0.6,0.2l0.6,0.1l0.6,0.1
					l0.6,0.1h0.6h0.6h0.7h1v-1.1l-0.7-0.2l-0.6-0.2l-0.6-0.2l-0.5-0.2l-0.5-0.3l-0.4-0.3l-0.4-0.3l-0.4-0.3l-0.5-0.5l-0.5-0.5
					l-0.5-0.6l-0.6-0.6l-0.5-0.6l-0.5-0.6l-0.5-0.6l-0.4-0.5l-8.7-12l0.4-0.1l0.5-0.2l0.6-0.3l0.6-0.3l0.7-0.4l0.7-0.5l0.4-0.3
					l0.4-0.3l0.4-0.3L571,48l0.3-0.3l0.4-0.4l0.3-0.4l0.3-0.4l0.3-0.4l0.3-0.5l0.3-0.5l0.3-0.5l0.2-0.5l0.2-0.5l0.2-0.6l0.2-0.6
					l0.1-0.6l0.1-0.7l0-0.7v-0.7v-0.5v-0.5v-0.5l-0.1-0.5l-0.1-0.5l-0.1-0.5l-0.2-0.5l-0.2-0.5l-0.2-0.5l-0.3-0.5l-0.3-0.5l-0.3-0.5
					l-0.4-0.5l-0.4-0.5l-0.5-0.5l-0.5-0.4l-0.5-0.4l-0.6-0.4l-0.6-0.4l-0.7-0.4l-0.7-0.4l-0.8-0.3l-0.8-0.3l-0.9-0.3l-1-0.3l-1-0.2
					l-1.1-0.2l-1.2-0.2l-1.2-0.1l-1.3-0.1h-1.3H554h-1h-1.1h-1.2h-1.3l-1.3,0h-1.3l-1.3,0.1l-1.3,0h-1.3l-1.2,0.1l-1.2,0h-1l-1,0.1
					h-0.8v1.3h3.7h0.5h0.4l0.4,0.1l0.3,0.1l0.3,0.1l0.3,0.1l0.3,0.2l0.2,0.2l0.2,0.2l0.2,0.3l0.1,0.3l0.1,0.3l0.1,0.4v0.4v0.4v0.4
					v31.7v0.6v0.5l-0.1,0.5l-0.1,0.4l-0.1,0.2l-0.1,0.2l-0.1,0.2l-0.1,0.2l-0.1,0.1l-0.1,0.2l-0.1,0.1l-0.1,0.1l-0.2,0.1l-0.2,0.1
					l-0.2,0.1l-0.2,0.1l-0.4,0.1l-0.4,0.1l-0.5,0.1h-0.6h-0.6h-1.7v1.3h20.3v-1.2h-3.2h-0.8l-0.7-0.1l-0.6-0.1l-0.3-0.1l-0.3-0.1
					l-0.2-0.1l-0.2-0.1l-0.2-0.1l-0.2-0.1l-0.2-0.1l-0.2-0.2l-0.2-0.2l-0.2-0.2l-0.1-0.2l-0.1-0.2l-0.1-0.2l-0.1-0.2l-0.1-0.2l0-0.2
					l-0.1-0.5l-0.1-0.6l-0.1-0.6v-0.7V51.9l0.8,0.2l0.8,0.1l0.8,0.1l0.8,0.1l0.8,0h0.8h2.7h1l0.7,0h0.2l0.3,0.3l0.3,0.4l0.3,0.4
					l0.4,0.4l0.4,0.5l0.4,0.5l0.4,0.6l0.5,0.7l1.4,2l1.3,1.8l0.6,0.9l0.6,0.8l0.6,0.8l0.6,0.7l0.6,0.7l0.6,0.6l0.6,0.6l0.6,0.6
					l0.5,0.5l0.6,0.5l0.5,0.5l0.5,0.4l0.6,0.4L573.7,68.5L573.7,68.5z M565.3,46.6L565,47l-0.4,0.4l-0.4,0.4l-0.4,0.4l-0.5,0.4
					l-0.5,0.3l-0.5,0.3l-0.5,0.3l-0.5,0.3l-0.6,0.2l-0.6,0.2l-0.6,0.2l-0.6,0.2l-0.7,0.2l-0.7,0.1l-0.7,0.1l-0.7,0.1l-0.7,0h-1.3
					l-0.5,0L553,51l-0.5-0.1l-0.5-0.1l-0.5-0.1l-0.4-0.1l-0.4-0.1V29.5l0.7-0.1l0.6-0.1h0.6l0.6,0h0.6h0.6h1.3h0.9h0.9l0.8,0.1
					l0.8,0.1l0.7,0.1l0.7,0.1l0.7,0.2l0.6,0.2l0.6,0.2l0.5,0.3l0.5,0.3l0.5,0.3l0.5,0.3l0.4,0.3l0.4,0.3l0.3,0.4l0.3,0.4l0.3,0.4
					l0.2,0.4l0.3,0.4l0.2,0.4l0.2,0.4l0.2,0.4l0.2,0.5l0.1,0.5l0.1,0.5l0.1,0.5l0.1,0.5v0.5l0,0.5V39v0.5v0.6l0,0.6v0.6l-0.1,0.6
					l-0.2,0.6l-0.2,0.6l-0.2,0.5l-0.2,0.5l-0.3,0.5l-0.3,0.5l-0.3,0.5l-0.3,0.5L565.3,46.6L565.3,46.6z"/>
				<polygon id="polygon14" class="st0" points="693.6,29.8 694.3,29.9 695,29.9 695.6,30 696.2,30.1 696.7,30.3 697.1,30.5 
					697.3,30.6 697.5,30.7 697.7,30.8 697.9,30.9 698,31.1 698.2,31.2 698.3,31.4 698.4,31.6 698.5,31.7 698.6,31.9 698.7,32.1 
					698.8,32.3 698.9,32.8 699,33.4 699.1,34 699.1,34.6 699.1,62.9 699.1,63.7 699,64.4 699,65.1 698.9,65.7 698.8,65.9 
					698.7,66.2 698.6,66.4 698.5,66.6 698.4,66.8 698.3,67 698.2,67.2 698,67.4 697.9,67.5 697.7,67.7 697.5,67.8 697.3,67.9 
					697.1,68 696.9,68.1 696.6,68.2 696.4,68.3 695.8,68.4 695.1,68.5 694.4,68.6 693.6,68.6 693.6,69.9 711.4,69.9 711.4,68.6 
					710.5,68.6 709.7,68.6 708.9,68.5 708.3,68.4 708,68.3 707.7,68.2 707.4,68.1 707.2,68 707,67.9 706.8,67.8 706.5,67.6 
					706.4,67.5 706.2,67.3 706.1,67.1 705.9,67 705.8,66.8 705.7,66.6 705.6,66.3 705.5,66.1 705.4,65.9 705.3,65.3 705.2,64.7 
					705.2,64.1 705.1,63.4 705.1,35.2 705.2,34.4 705.2,33.7 705.3,33.3 705.3,33 705.4,32.8 705.5,32.5 705.6,32.2 705.7,32 
					705.8,31.7 705.9,31.5 706,31.3 706.2,31.1 706.4,31 706.5,30.8 706.7,30.7 706.9,30.6 707.1,30.4 707.4,30.3 707.6,30.2 
					707.9,30.1 708.2,30.1 708.5,30 709.1,29.9 709.8,29.9 710.5,29.8 711.4,29.8 711.4,28.5 693.6,28.5 				"/>
				<polygon id="polygon16" class="st0" points="683.8,31.6 684,31.7 684.2,31.9 684.3,32 684.5,32.2 684.7,32.4 684.8,32.7 
					685,32.9 685.1,33.1 685.3,33.4 685.5,34 685.8,34.7 686,35.5 686.2,36.3 686.4,37.3 686.6,38.3 688,38.3 686.8,27.5 
					685.4,27.5 685.4,27.7 685.3,27.8 685.2,27.9 685.1,28 685,28.1 684.9,28.2 684.8,28.3 684.6,28.3 684.3,28.4 683.9,28.5 
					683.5,28.5 683.1,28.5 647.9,28.5 647.5,28.5 647.2,28.5 646.8,28.4 646.5,28.3 646.3,28.3 646.2,28.2 646,28.1 645.9,28 
					645.8,27.9 645.8,27.8 645.7,27.7 645.7,27.5 644.3,27.5 643.1,38.3 644.4,38.3 644.6,37.3 644.8,36.3 645.1,35.5 645.3,34.7 
					645.5,34 645.8,33.4 646,33.1 646.1,32.9 646.2,32.7 646.4,32.4 646.5,32.2 646.7,32 646.9,31.9 647.1,31.7 647.2,31.6 
					647.4,31.5 647.7,31.4 647.8,31.3 648.1,31.2 648.3,31.1 648.5,31 648.7,31 649.2,31 649.8,31 662.5,31 662.5,63.8 662.5,64.4 
					662.4,65 662.3,65.6 662.2,66 662.1,66.3 662,66.5 662,66.7 661.8,66.9 661.7,67.1 661.6,67.2 661.4,67.4 661.3,67.6 
					661.1,67.7 660.9,67.8 660.7,67.9 660.5,68 660.3,68.1 660,68.2 659.8,68.3 659.5,68.4 658.9,68.5 658.2,68.6 657.5,68.6 
					656.7,68.6 654,68.6 654,69.9 677.1,69.9 677.1,68.6 674.4,68.6 673.5,68.6 672.8,68.6 672.2,68.5 671.6,68.4 671.3,68.3 
					671,68.2 670.8,68.1 670.5,68 670.3,67.9 670.1,67.8 670,67.7 669.8,67.6 669.6,67.4 669.5,67.2 669.3,67.1 669.2,66.9 
					669.1,66.7 669,66.5 668.9,66.3 668.8,66 668.7,65.6 668.6,65 668.6,64.4 668.6,63.8 668.6,31 681.3,31 681.8,31 682.3,31 
					682.6,31 682.8,31.1 683,31.2 683.2,31.3 683.4,31.4 683.6,31.5 				"/>
				<polygon id="polygon18" class="st0" points="765.4,38.3 765.7,38 766,37.7 766.3,37.3 766.5,37 766.8,36.7 767,36.3 767.2,36 
					767.5,35.6 767.6,35.3 767.8,34.9 768,34.6 768.1,34.2 768.2,33.8 768.3,33.5 768.4,33.1 768.5,32.7 768.5,32.3 768.5,31.9 
					768.5,31.5 768.5,31 768.5,30.4 768.3,29.9 768.1,29.3 767.9,28.9 767.7,28.4 767.4,28 767.1,27.6 766.7,27.2 766.3,26.9 
					766.1,26.8 765.9,26.6 765.7,26.5 765.5,26.4 765.2,26.3 765,26.2 764.7,26.2 764.5,26.1 764.2,26.1 763.9,26 763.7,26 
					763.4,26 763,26 762.6,26.1 762.2,26.2 761.9,26.3 761.5,26.4 761.2,26.6 760.9,26.8 760.6,27 760.4,27.2 760.1,27.5 
					759.9,27.7 759.8,28 759.6,28.3 759.5,28.6 759.5,29 759.5,29.3 759.5,29.6 759.5,29.9 759.6,30.2 759.7,30.5 759.8,30.7 
					760,31 760.2,31.2 760.4,31.4 760.6,31.6 760.9,31.8 761.2,31.9 761.4,32 761.7,32.1 762.1,32.2 762.4,32.2 762.8,32.3 
					763.3,32.2 763.7,32.2 764.1,32.1 764.5,32.1 764.6,32.1 764.8,32.1 764.9,32.1 765,32.2 765.1,32.2 765.2,32.3 765.2,32.4 
					765.3,32.5 765.4,32.7 765.5,32.9 765.5,33.2 765.5,33.5 765.5,33.9 765.5,34.4 765.3,34.8 765.2,35.2 765,35.7 764.7,36.1 
					764.4,36.5 764.1,37 763.7,37.4 763.3,37.8 762.8,38.2 762.3,38.6 761.8,39 761.2,39.4 760.6,39.7 759.9,40.1 760.4,41.3 
					760.9,41.1 761.3,41 761.7,40.8 762.2,40.6 762.6,40.4 763,40.2 763.4,39.9 763.7,39.7 764.1,39.4 764.4,39.1 764.8,38.9 
					765.1,38.6 				"/>
				<polygon id="polygon20" class="st0" points="802.3,58.5 802.1,57.4 801.8,56.4 801.4,55.4 800.9,54.5 800.2,53.6 799.5,52.8 
					798.7,52 797.9,51.2 797,50.5 796,49.7 795,49 793.9,48.4 792.9,47.7 791.8,47.1 790.7,46.4 788.5,45.2 786.3,44 785.3,43.3 
					784.4,42.7 783.4,42.1 782.6,41.4 781.8,40.8 781.1,40.1 780.5,39.4 779.9,38.6 779.5,37.9 779.2,37.1 779,36.3 778.9,35.4 
					778.9,35 779,34.7 779,34.4 779.1,34.1 779.2,33.7 779.3,33.4 779.4,33.1 779.5,32.8 779.7,32.5 779.8,32.3 780,32 780.2,31.8 
					780.4,31.5 780.7,31.3 780.9,31.1 781.2,30.9 781.5,30.7 781.8,30.5 782.1,30.3 782.4,30.1 782.7,30 783.1,29.9 783.4,29.7 
					783.8,29.6 784.2,29.5 784.6,29.4 785,29.3 785.4,29.3 785.8,29.2 786.2,29.2 786.7,29.2 787.1,29.1 787.6,29.2 788.1,29.2 
					788.5,29.2 789,29.3 789.5,29.4 789.9,29.5 790.3,29.6 790.8,29.7 791.2,29.9 791.7,30 792.1,30.2 792.5,30.4 792.9,30.6 
					793.3,30.8 793.8,31 794.1,31.3 794.5,31.5 794.9,31.8 795.3,32.1 795.6,32.4 796,32.7 796.3,33 796.6,33.4 796.9,33.7 
					797.2,34.1 797.5,34.5 797.8,34.9 798,35.3 798.3,35.7 798.5,36.1 798.7,36.5 798.9,37 800.1,37 798.9,28.5 797.7,28.5 
					797.6,28.7 797.4,28.9 797.3,29 797.1,29.1 797,29.1 796.8,29.2 796.6,29.2 796.4,29.2 796,29.2 795.5,29.1 795.1,29 794.6,29 
					793.8,28.7 792.8,28.4 792.2,28.2 791.6,28.1 791,27.9 790.2,27.8 789.5,27.7 788.5,27.6 787.6,27.6 786.5,27.5 785.8,27.6 
					785.1,27.6 784.4,27.6 783.8,27.7 783.1,27.8 782.5,28 781.9,28.1 781.3,28.3 780.7,28.5 780.1,28.7 779.6,28.9 779.1,29.1 
					778.5,29.4 778.1,29.7 777.6,30 777.2,30.3 776.7,30.6 776.3,31 775.9,31.3 775.6,31.7 775.2,32.1 774.9,32.5 774.7,32.9 
					774.4,33.3 774.2,33.8 774,34.2 773.8,34.7 773.7,35.2 773.6,35.7 773.5,36.2 773.4,36.7 773.4,37.2 773.5,38.2 773.7,39.3 
					774,40.2 774.4,41.2 775,42.1 775.6,42.9 776.3,43.7 777.1,44.5 778,45.3 778.9,46 779.8,46.7 780.8,47.4 781.9,48.1 783,48.7 
					784.1,49.4 785.2,50 787.4,51.3 789.5,52.5 790.5,53.2 791.5,53.8 792.4,54.5 793.3,55.2 794.1,55.8 794.8,56.5 795.4,57.3 
					795.9,58 796.4,58.8 796.7,59.6 796.9,60.4 796.9,61.3 796.9,61.8 796.9,62.3 796.8,62.7 796.7,63.2 796.6,63.6 796.4,64 
					796.2,64.4 796,64.8 795.8,65.1 795.6,65.5 795.3,65.8 795,66.1 794.7,66.4 794.4,66.7 794.1,67 793.7,67.2 793.3,67.4 
					793,67.7 792.6,67.9 792.2,68.1 791.8,68.2 791.3,68.4 790.9,68.5 790.5,68.7 790,68.8 789.6,68.9 789.1,69 788.7,69 
					788.2,69.1 787.7,69.1 787.3,69.2 786.8,69.2 786.3,69.2 785.8,69.1 785.2,69.1 784.7,69 784.2,68.9 783.7,68.8 783.2,68.7 
					782.7,68.5 782.2,68.4 781.7,68.2 781.3,68 780.8,67.8 780.4,67.5 779.9,67.3 779.5,67 779.1,66.7 778.7,66.4 778.3,66.1 
					777.9,65.7 777.5,65.3 777.2,65 776.9,64.6 776.5,64.2 776.2,63.7 775.9,63.3 775.7,62.8 775.4,62.4 775.2,61.9 775,61.4 
					774.8,60.9 774.6,60.3 774.5,59.8 773,59.8 774.6,69.9 775.8,69.9 776,69.7 776.1,69.6 776.3,69.5 776.4,69.4 776.6,69.3 
					776.8,69.2 777.1,69.2 777.3,69.2 777.6,69.2 777.9,69.2 778.3,69.3 778.8,69.4 779.9,69.7 781.3,70.1 782,70.2 782.8,70.4 
					783.5,70.5 784.3,70.7 785.1,70.8 786,70.9 786.7,70.9 787.5,70.9 788.3,70.9 789.1,70.9 789.8,70.8 790.6,70.7 791.3,70.6 
					792,70.5 792.8,70.3 793.4,70.1 794.1,69.9 794.8,69.6 795.4,69.4 796,69.1 796.6,68.8 797.1,68.4 797.6,68.1 798.2,67.7 
					798.6,67.3 799.1,66.9 799.5,66.5 799.9,66 800.3,65.6 800.7,65.1 801,64.6 801.3,64.1 801.5,63.6 801.8,63 802,62.5 802.1,62 
					802.2,61.4 802.3,60.8 802.4,60.2 802.4,59.6 				"/>
				<rect id="rect22" x="458.1" y="85.5" class="st0" width="2.4" height="15.7"/>
				<polygon id="polygon24" class="st0" points="476.2,95.7 476.2,96.1 476.2,96.6 476.2,97.1 476.2,97.4 476.1,97.4 476,97.2 
					475.9,97 475.8,96.8 475.6,96.6 475.3,96.1 475.1,95.8 467.5,85.6 467.3,85.4 464.8,85.6 464.8,101.2 466.8,101.2 466.8,90 
					466.8,89.6 466.8,89.1 466.8,88.8 466.8,88.4 466.9,88.4 467,88.8 467.2,89.1 467.4,89.4 467.6,89.7 476.6,101.5 478.2,101.5 
					478.2,85.6 476.2,85.6 				"/>
				<polygon id="polygon26" class="st0" points="480.3,87.3 486.1,87.3 486.1,101.2 488.5,101.2 488.5,87.3 494.1,87.3 494.1,85.5 
					480.3,85.5 				"/>
				<polygon id="polygon28" class="st0" points="499.3,99.5 499.1,99.4 499,99.4 498.9,99.3 498.8,99.2 498.8,99.1 498.7,98.9 
					498.7,98.7 498.7,93.7 504.7,93.7 504.7,92 498.7,92 498.7,87.3 505.4,87.3 505.4,85.5 496.3,85.5 496.3,101.2 505.7,101.2 
					506,99.5 499.4,99.5 				"/>
				<polygon id="polygon30" class="st0" points="515.6,93.8 515.9,93.7 516.3,93.5 516.6,93.4 517,93.2 517.3,92.9 517.5,92.7 
					517.8,92.5 518.1,92.2 518.3,91.9 518.5,91.6 518.6,91.2 518.8,90.8 518.9,90.4 519,90 519,89.6 519,89.3 518.9,89 518.9,88.7 
					518.8,88.4 518.7,88.2 518.7,87.9 518.6,87.7 518.4,87.5 518.3,87.3 518.2,87.1 518,86.9 517.8,86.8 517.7,86.6 517.5,86.5 
					517.3,86.4 517.1,86.3 516.7,86.1 516.2,85.9 515.8,85.8 515.3,85.7 514.8,85.6 514.3,85.6 513.8,85.6 513.3,85.5 508.6,85.5 
					508.6,101.2 511,101.2 511,87.1 512.4,87.1 512.8,87.1 513.2,87.1 513.6,87.1 514,87.2 514.3,87.2 514.7,87.3 515,87.5 
					515.2,87.6 515.5,87.8 515.7,88 515.9,88.2 516.1,88.5 516.2,88.8 516.3,89.2 516.4,89.6 516.4,90 516.4,90.4 516.3,90.8 
					516.2,91.1 516,91.4 515.9,91.7 515.7,92 515.4,92.2 515.2,92.4 514.9,92.6 514.6,92.7 514.3,92.8 513.9,92.9 513.6,93 
					513.2,93.1 512.8,93.1 512.5,93.1 511.6,93.1 518,101.2 518.2,101.4 521.1,101.2 515.2,93.9 				"/>
				<polygon id="polygon32" class="st0" points="534.7,95.7 534.7,96.1 534.7,96.6 534.7,97.1 534.7,97.4 534.6,97.4 534.5,97.2 
					534.4,97 534.3,96.8 534.1,96.6 533.8,96.1 533.6,95.8 526,85.6 525.9,85.4 523.3,85.6 523.3,101.2 525.3,101.2 525.3,90 
					525.3,89.6 525.3,89.1 525.3,88.8 525.3,88.4 525.4,88.4 525.5,88.8 525.7,89.1 525.9,89.4 526.1,89.7 535.1,101.5 536.7,101.5 
					536.7,85.6 534.7,85.6 				"/>
				<path id="path34" class="st0" d="M545.4,85.1l-6.7,16.1l1.8,0.2l0.2-0.1l2-4.9h6.3l1.8,4.9l0.2,0.1l2.4-0.2l-6.2-16.1
					L545.4,85.1L545.4,85.1z M543.3,94.8l2-4.9l0.2-0.5l0.2-0.5l0.1-0.3l0.1-0.2L546,88v-0.2h0.1V88l0.1,0.3l0,0.2l0.1,0.3l0.2,0.5
					l0.2,0.5l1.8,5L543.3,94.8L543.3,94.8z"/>
				<polygon id="polygon36" class="st0" points="551.7,87.3 557.4,87.3 557.4,101.2 559.8,101.2 559.8,87.3 565.5,87.3 565.5,85.5 
					551.7,85.5 				"/>
				<rect id="rect38" x="567.7" y="85.5" class="st0" width="2.4" height="15.7"/>
				<path id="path40" class="st0" d="M588.4,91.9l-0.1-0.5l-0.1-0.5l-0.1-0.4l-0.1-0.4l-0.1-0.4l-0.2-0.4l-0.2-0.3l-0.2-0.4
					l-0.2-0.3l-0.2-0.3l-0.2-0.3l-0.3-0.3l-0.3-0.2l-0.3-0.3l-0.3-0.2l-0.3-0.2l-0.3-0.2l-0.3-0.2l-0.3-0.2l-0.3-0.2l-0.3-0.1
					l-0.4-0.1l-0.4-0.1l-0.4-0.1l-0.4-0.1l-0.4-0.1h-0.4h-0.4h-0.4h-0.4H580l-0.4,0.1h-0.4l-0.4,0.1l-0.4,0.1l-0.4,0.1l-0.3,0.1
					l-0.3,0.2l-0.3,0.2l-0.3,0.2l-0.3,0.2l-0.3,0.2l-0.3,0.2l-0.3,0.3l-0.2,0.2l-0.3,0.3l-0.2,0.3l-0.2,0.3l-0.2,0.3l-0.2,0.3
					l-0.2,0.3l-0.2,0.4l-0.2,0.4l-0.2,0.4l-0.1,0.4l-0.1,0.4l-0.1,0.4L573,92v0.5l-0.1,0.5v1v0.5v0.5l0.1,0.5l0.1,0.4l0.1,0.4
					l0.1,0.4l0.1,0.4l0.2,0.4l0.2,0.4L574,98l0.2,0.3l0.2,0.3l0.2,0.3l0.3,0.3l0.2,0.2l0.3,0.3l0.2,0.2l0.3,0.2l0.3,0.2l0.3,0.2
					l0.3,0.2l0.3,0.2l0.3,0.1l0.4,0.1l0.4,0.1l0.4,0.1l0.4,0.1l0.4,0.1h0.4h0.4h0.4h0.4h0.4l0.4-0.1l0.4-0.1l0.4-0.1l0.4-0.1
					l0.4-0.1l0.3-0.1l0.3-0.2l0.3-0.2l0.3-0.2l0.3-0.2l0.3-0.2l0.3-0.2l0.3-0.3l0.2-0.2l0.3-0.3l0.3-0.3l0.2-0.3l0.2-0.3l0.2-0.3
					l0.2-0.3l0.2-0.4l0.2-0.4l0.2-0.3l0.1-0.4l0.1-0.4l0.1-0.4l0.1-0.4v-0.4v-0.4v-1v-0.5L588.4,91.9L588.4,91.9z M585.9,93.9v0.4
					v0.4v0.4v0.4l-0.1,0.4l-0.1,0.3l-0.1,0.3l-0.1,0.3l-0.1,0.3l-0.1,0.3l-0.1,0.3l-0.2,0.2l-0.2,0.2l-0.2,0.2l-0.2,0.2l-0.2,0.2
					l-0.2,0.2l-0.2,0.2l-0.2,0.1l-0.2,0.1l-0.2,0.1l-0.2,0.1l-0.2,0.1l-0.5,0.2l-0.5,0.1l-0.5,0.1h-1l-0.5-0.1l-0.5-0.1l-0.5-0.2
					l-0.2-0.1l-0.2-0.1l-0.2-0.1l-0.2-0.1l-0.2-0.1l-0.2-0.2l-0.2-0.2l-0.2-0.2l-0.2-0.2l-0.2-0.2l-0.2-0.2l-0.1-0.2l-0.2-0.3
					l-0.1-0.3l-0.1-0.3l-0.1-0.3l-0.1-0.3l-0.1-0.3l-0.1-0.4l-0.1-0.4l-0.1-0.4v-0.4v-0.4v-1v-0.5V92l0.1-0.4l0-0.4l0.1-0.4l0.1-0.3
					l0.1-0.3l0.1-0.3l0.1-0.3l0.2-0.3l0.1-0.2l0.2-0.3l0.2-0.2l0.2-0.2l0.2-0.2l0.2-0.2l0.2-0.2l0.2-0.2l0.2-0.1l0.2-0.1l0.2-0.1
					l0.2-0.1l0.2-0.1l0.5-0.1l0.5-0.1l0.5-0.1h0.5h0.5l0.5,0.1l0.5,0.1l0.5,0.2l0.2,0.1l0.2,0.1l0.2,0.1l0.2,0.1l0.2,0.2l0.2,0.2
					l0.2,0.2l0.2,0.2l0.2,0.2l0.2,0.2l0.2,0.2L585,89l0.2,0.3l0.1,0.2l0.1,0.3l0.1,0.3l0.1,0.3l0.1,0.3l0.1,0.4l0.1,0.4l0.1,0.4v0.4
					v0.5v0.5L585.9,93.9L585.9,93.9z"/>
				<polygon id="polygon42" class="st0" points="602.7,95.7 602.7,96.1 602.7,96.6 602.7,97.1 602.7,97.4 602.6,97.4 602.6,97.2 
					602.4,97 602.3,96.8 602.2,96.6 601.8,96.1 601.6,95.8 594,85.6 593.8,85.4 591.3,85.6 591.3,101.2 593.3,101.2 593.3,90 
					593.3,89.6 593.3,89.1 593.3,88.8 593.3,88.4 593.4,88.4 593.5,88.8 593.7,89.1 593.9,89.4 594.1,89.7 603.1,101.5 604.7,101.5 
					604.7,85.6 602.7,85.6 				"/>
				<path id="path44" class="st0" d="M613.4,85.1l-6.7,16.1l1.8,0.2l0.2-0.1l2-4.9h6.3l1.8,4.9l0.2,0.1l2.4-0.2l-6.2-16.1
					L613.4,85.1L613.4,85.1z M611.3,94.8l2-4.9l0.2-0.5l0.2-0.5l0.1-0.3l0.1-0.2L614,88v-0.2h0.1V88v0.3l0,0.2l0.1,0.3l0.2,0.5
					l0.2,0.5l1.8,5L611.3,94.8L611.3,94.8z"/>
				<polygon id="polygon46" class="st0" points="626.4,99.5 626.3,99.4 626.2,99.4 626.1,99.3 626,99.2 625.9,99.1 625.9,98.9 
					625.9,98.7 625.9,85.5 623.5,85.5 623.5,101.2 632.9,101.2 633.1,99.5 626.6,99.5 				"/>
				<polygon id="polygon48" class="st0" points="648.2,93.8 648.6,93.7 649,93.5 649.3,93.4 649.6,93.2 649.9,92.9 650.2,92.7 
					650.5,92.5 650.7,92.2 651,91.9 651.2,91.6 651.3,91.2 651.5,90.8 651.6,90.4 651.6,90 651.6,89.6 651.6,89.3 651.6,89 
					651.6,88.7 651.5,88.4 651.4,88.2 651.3,87.9 651.2,87.7 651.1,87.5 651,87.3 650.8,87.1 650.7,86.9 650.5,86.8 650.3,86.6 
					650.2,86.5 650,86.4 649.8,86.3 649.3,86.1 648.9,85.9 648.4,85.8 647.9,85.7 647.4,85.6 646.9,85.6 646.4,85.6 645.9,85.5 
					641.3,85.5 641.3,101.2 643.7,101.2 643.7,87.1 645.1,87.1 645.5,87.1 645.9,87.1 646.3,87.1 646.7,87.2 647,87.2 647.3,87.3 
					647.6,87.5 647.9,87.6 648.2,87.8 648.4,88 648.6,88.2 648.8,88.5 648.9,88.8 649,89.2 649,89.6 649.1,90 649,90.4 649,90.8 
					648.9,91.1 648.7,91.4 648.5,91.7 648.3,92 648.1,92.2 647.8,92.4 647.6,92.6 647.3,92.7 646.9,92.8 646.6,92.9 646.2,93 
					645.9,93.1 645.5,93.1 645.1,93.1 644.3,93.1 650.7,101.2 650.9,101.4 653.8,101.2 647.9,93.9 				"/>
				<polygon id="polygon50" class="st0" points="658.9,99.5 658.8,99.4 658.7,99.4 658.6,99.3 658.5,99.2 658.4,99.1 658.4,98.9 
					658.4,98.7 658.4,93.7 664.4,93.7 664.4,92 658.4,92 658.4,87.3 665.1,87.3 665.1,85.5 656,85.5 656,101.2 665.4,101.2 
					665.6,99.5 659.1,99.5 				"/>
				<path id="path52" class="st0" d="M673.5,85.1l-6.7,16.1l1.8,0.2l0.2-0.1l2-4.9h6.3l1.8,4.9l0.2,0.1l2.4-0.2l-6.2-16.1
					L673.5,85.1z M671.4,94.8l2-4.9l0.2-0.5l0.2-0.5l0.1-0.3l0.1-0.2L674,88v-0.2h0.1V88l0,0.3v0.2l0.1,0.3l0.2,0.5l0.2,0.5l1.8,5
					L671.4,94.8z"/>
				<polygon id="polygon54" class="st0" points="686.5,99.5 686.3,99.4 686.2,99.4 686.1,99.3 686,99.2 686,99.1 685.9,98.9 
					685.9,98.7 685.9,85.5 683.5,85.5 683.5,101.2 692.9,101.2 693.1,99.5 686.6,99.5 				"/>
				<polygon id="polygon56" class="st0" points="704.3,99.5 704.1,99.4 704,99.4 703.9,99.3 703.8,99.2 703.8,99.1 703.7,98.9 
					703.7,98.7 703.7,93.7 709.7,93.7 709.7,92 703.7,92 703.7,87.3 710.4,87.3 710.4,85.5 701.3,85.5 701.3,101.2 710.7,101.2 
					711,99.5 704.4,99.5 				"/>
				<polygon id="polygon58" class="st0" points="722.8,95.8 722.8,95.4 722.7,95.1 722.5,94.8 722.4,94.5 722.2,94.2 722,93.9 
					721.7,93.7 721.5,93.5 721.2,93.2 721,93.1 720.7,92.9 720.4,92.7 720.1,92.5 719.8,92.4 717.7,91.5 717.2,91.2 716.8,91 
					716.3,90.7 716,90.5 715.8,90.3 715.7,90.2 715.6,90 715.5,89.8 715.4,89.6 715.3,89.4 715.3,89.2 715.3,89 715.3,88.7 
					715.3,88.5 715.4,88.3 715.5,88.1 715.6,87.9 715.7,87.8 715.9,87.6 716,87.5 716.2,87.3 716.5,87.2 716.7,87.2 717,87.1 
					717.2,87 717.5,87 717.9,86.9 718.2,86.9 718.7,86.9 719.1,87 719.6,87.1 720,87.2 720.4,87.4 720.8,87.6 721.1,87.8 721.4,88 
					722.2,86.1 721.8,85.9 721.4,85.7 720.9,85.5 720.5,85.4 720,85.3 719.5,85.2 719,85.2 718.4,85.2 717.9,85.2 717.4,85.2 
					716.9,85.3 716.5,85.5 716,85.6 715.5,85.8 715.1,86.1 714.7,86.3 714.4,86.6 714,87 713.9,87.2 713.8,87.3 713.6,87.5 
					713.5,87.7 713.4,87.9 713.3,88.2 713.2,88.4 713.2,88.6 713.1,88.8 713.1,89.1 713.1,89.3 713.1,89.6 713.1,90 713.1,90.3 
					713.2,90.7 713.3,91 713.4,91.3 713.6,91.5 713.8,91.8 714,92 714.2,92.3 714.4,92.5 714.7,92.7 714.9,92.8 715.2,93 
					715.5,93.2 715.8,93.3 716.1,93.5 718,94.3 718.5,94.5 718.9,94.8 719.2,94.9 719.4,95.1 719.6,95.2 719.8,95.3 720,95.5 
					720.1,95.7 720.3,95.9 720.4,96.2 720.5,96.4 720.6,96.7 720.6,96.9 720.7,97.2 720.6,97.6 720.6,97.9 720.5,98.1 720.3,98.4 
					720.2,98.7 720,98.8 719.8,99 719.5,99.2 719.2,99.3 719,99.5 718.7,99.6 718.4,99.7 718.1,99.7 717.8,99.8 717.5,99.8 
					717.1,99.8 716.6,99.8 716.1,99.7 715.6,99.6 715.1,99.5 714.6,99.3 714.2,99.2 713.9,99 713.6,98.8 712.9,100.6 713.3,100.8 
					713.8,101 714.3,101.2 714.8,101.3 715.3,101.4 715.9,101.5 716.4,101.5 717,101.6 717.5,101.5 718.1,101.5 718.7,101.4 
					719.2,101.2 719.7,101 720.2,100.8 720.7,100.5 721.1,100.2 721.3,100.1 721.5,99.9 721.7,99.7 721.8,99.5 722,99.3 722.2,99.1 
					722.3,98.8 722.4,98.6 722.5,98.4 722.6,98.1 722.7,97.9 722.8,97.6 722.8,97.3 722.9,97.1 722.9,96.8 722.9,96.5 722.9,96.1 
									"/>
				<polygon id="polygon60" class="st0" points="737.9,85.5 724,85.5 724,87.3 729.8,87.3 729.8,101.2 732.2,101.2 732.2,87.3 
					737.9,87.3 				"/>
				<path id="path62" class="st0" d="M742.6,85.1l-6.6,16.1l1.8,0.2l0.2-0.1l2-4.9h6.3l1.8,4.9l0.2,0.1l2.4-0.2l-6.2-16.1
					L742.6,85.1L742.6,85.1z M740.5,94.8l2-4.9l0.2-0.5l0.2-0.5l0.1-0.3l0.1-0.2V88v-0.2h0.1V88l0,0.3v0.2l0.1,0.3l0.2,0.5l0.2,0.5
					l1.8,5h-5.2L740.5,94.8z"/>
				<polygon id="polygon64" class="st0" points="748.9,87.3 754.6,87.3 754.6,101.2 757,101.2 757,87.3 762.7,87.3 762.7,85.5 
					748.9,85.5 				"/>
				<polygon id="polygon66" class="st0" points="767.8,99.5 767.7,99.4 767.6,99.4 767.5,99.3 767.4,99.2 767.3,99.1 767.3,98.9 
					767.3,98.7 767.3,93.7 773.2,93.7 773.2,92 767.3,92 767.3,87.3 774,87.3 774,85.5 764.9,85.5 764.9,101.2 774.2,101.2 
					774.5,99.5 768,99.5 				"/>
				<path id="path68" class="st0" d="M36.3,63.2C31.9,50.9,27.4,38.1,23.2,26l-1.6,0.5L7.4,63.1c-2.3,6-3.2,6.6-7.4,7.1v1.4h14.2
					v-1.4c-5.2-0.5-5.8-1.2-4.3-5.7c0.9-3,2-6.2,3.2-9.8h14.2c1.7,4.9,3.1,8.9,4,11.6c0.9,2.8,0.1,3.4-4,3.9v1.4h16.3v-1.4
					C39.4,69.8,38.4,69.2,36.3,63.2L36.3,63.2z M14,52.3c2-5.6,4.2-11.7,6.4-17.6h0.2l5.9,17.7L14,52.3z"/>
				<path id="path70" class="st0" d="M71.9,65.4c-0.3-3.9-0.5-7.8-0.4-11.7v-18h0.1L101,72.3h1.6V44.1c0-6.2,0.1-9.2,0.3-11.3
					c0.3-3.3,1.8-4.1,5.5-4.4V27h-15v1.4c4.7,0.3,6.2,1.2,6.5,4.5c0.3,3.7,0.5,7.5,0.4,11.3v17.8h-0.2L71.6,27H62v1.4
					c3.3,0.4,4.5,0.9,5.9,2.7c1.2,1.6,1.4,2.1,1.4,7.2v15.5c0,6.5-0.2,9.8-0.4,11.8c-0.3,3.6-1.9,4.5-5.8,4.7v1.4h15.2v-1.4
					C73.7,69.9,72.2,69.1,71.9,65.4L71.9,65.4z"/>
				<path id="path72" class="st0" d="M143.7,46.1c-5.4-2.9-8.7-5.3-8.7-10.4c0-4,2.4-7.8,7.6-7.8c5.8,0,7.9,4.7,9.1,9.1l1.4-0.3
					c-0.5-4.1-0.9-6.7-1.1-9.2c-2.7-0.9-5.5-1.4-8.3-1.5c-8.5,0-13.7,5.6-13.7,12.1c0,7.8,7,11.3,11.1,13.6
					c4.9,2.8,8.7,5.3,8.7,10.4s-3,8.5-8.2,8.5c-7.1,0-10.4-7-11.4-11.3l-1.4,0.4c0.3,2.6,1.2,9.2,1.8,10.5c1.1,0.6,2.2,1,3.4,1.4
					c2.1,0.7,4.3,1,6.5,1c8.9,0,14.7-5.8,14.7-12.8C155.1,52.1,149,49,143.7,46.1L143.7,46.1z"/>
				<path id="path74" class="st0" d="M206,60.8c-0.7,2.4-1.8,4.7-3.4,6.7c-1.6,1.8-3.8,2.2-7.9,2.2c-3,0-5.3-0.1-6.6-0.9
					s-1.5-2.1-1.5-6V35.2c0-6,0.6-6.3,5.6-6.7V27h-16.8v1.4c5.3,0.4,5.7,0.8,5.7,6.7v28.3c0,5.9-0.5,6.5-6,6.9v1.4H205
					c0.7-2.3,2-8.5,2.4-10.4L206,60.8z"/>
				<path id="path76" class="st0" d="M255.8,67.3c-1.5,1.9-3,2.5-8.8,2.5c-3.3,0-5.7,0-7-1s-1.6-2.3-1.6-5.5V49.7h6.6
					c6,0,6.4,0.6,7.2,5.4h1.4V42.3h-1.4c-0.8,4.5-1.1,5.2-7.3,5.2h-6.6V31.1c0-2,0.1-2.2,2.2-2.2h4.8c5.2,0,7,0.5,8.1,2.1
					c1.1,1.7,1.8,3.7,2.2,5.7l1.5-0.2c-0.3-3-0.5-7.5-0.5-9.5h-29.3v1.3c5.1,0.5,5.6,0.8,5.6,7.1v28c0,5.8-0.6,6.3-6.6,6.8v1.4h31.8
					c0.6-2.3,1.9-8.2,2.3-10.4l-1.4-0.3C258.2,63.2,257.1,65.3,255.8,67.3L255.8,67.3z"/>
				<path id="path78" class="st0" d="M303.8,28.4c5.1,0.5,5.5,1.1,3.9,4.6c-1.9,4.3-5.9,11.7-8.3,16.2c-2.9-5.2-6.3-11.3-9.3-17.2
					c-1.1-2.1-1.2-3,3.5-3.6V27h-15.6v1.4c4,0.3,4.5,1,7.3,6c3.9,6.9,6.4,11.5,8.4,15.3c1.1,2.1,1.4,2.8,1.4,4.1v9.5
					c0,5.9-0.5,6.5-6.3,6.9v1.4H307v-1.4c-6-0.4-6.6-1-6.6-6.9v-9.7c-0.1-1.6,0.3-3.2,1.2-4.6c3.2-6.1,5.5-10.3,9-15.8
					c2.2-3.6,2.8-4.3,7.5-4.9V27h-14.3V28.4L303.8,28.4z"/>
				<path id="path80" class="st0" d="M70.1,106.6c0-1.1-0.4-2.2-1.2-3.1c-1.2-1.1-2.8-1.7-4.4-1.6h-6.5v15.6H60v-6h3.9l4.6,6h2.6
					l-4.9-6.4C68.5,110.8,70.1,108.9,70.1,106.6L70.1,106.6z M60,104h4.4c2.3,0,3.6,1,3.6,2.7s-1.4,2.8-3.7,2.8H60V104z"/>
				<polygon id="polygon82" class="st0" points="80.9,110.7 89.2,110.7 89.2,108.7 80.9,108.7 80.9,104 90.1,104 90.1,102 78.8,102 
					78.8,117.5 90.2,117.5 90.2,115.5 80.9,115.5 				"/>
				<path id="path84" class="st0" d="M106,101.9h-1.7l-7.2,15.7h2.2l1.8-4.1h7.8l1.8,4.1h2.3l-7.1-15.5L106,101.9L106,101.9z
					 M108.1,111.5h-6l3-6.7L108.1,111.5z"/>
				<polygon id="polygon86" class="st0" points="123.1,102 121,102 121,117.5 131.5,117.5 131.5,115.5 123.1,115.5 				"/>
				<polygon id="polygon88" class="st0" points="154.2,110.7 162.4,110.7 162.4,108.7 154.2,108.7 154.2,104 163.4,104 163.4,102 
					152.1,102 152.1,117.5 163.5,117.5 163.5,115.5 154.2,115.5 				"/>
				<path id="path90" class="st0" d="M177.5,108.7c-3.5-0.7-3.8-1.6-3.8-2.7c0-1.3,1.3-2.2,3-2.2c1.5,0,2.9,0.5,3.9,1.5l0.4,0.4
					l1.3-1.7l-0.4-0.3c-1.4-1.3-3.3-2-5.2-1.9c-2.9,0-5.1,1.9-5.1,4.4s1.5,3.8,5.2,4.6c3.4,0.7,3.6,1.5,3.6,2.6
					c0,1.4-1.3,2.4-3.1,2.4c-1.8,0-3.5-0.7-4.8-2l-0.4-0.4l-1.4,1.6l0.4,0.3c1.6,1.6,3.8,2.5,6.1,2.5c3.1,0,5.3-1.9,5.3-4.5
					C182.6,110.8,181.1,109.5,177.5,108.7L177.5,108.7z"/>
				<polygon id="polygon92" class="st0" points="189.9,104 194.9,104 194.9,117.5 197,117.5 197,104 202,104 202,102 189.9,102 				
					"/>
				<path id="path94" class="st0" d="M215.8,101.9h-1.7l-7.1,15.7h2.2l1.8-4.1h7.8l1.8,4.1h2.3l-7.1-15.5L215.8,101.9L215.8,101.9z
					 M217.9,111.5h-6l3-6.7L217.9,111.5z"/>
				<polygon id="polygon96" class="st0" points="227.9,104 232.9,104 232.9,117.5 235,117.5 235,104 240,104 240,102 227.9,102 				
					"/>
				<polygon id="polygon98" class="st0" points="250.5,110.7 258.7,110.7 258.7,108.7 250.5,108.7 250.5,104 259.6,104 259.6,102 
					248.4,102 248.4,117.5 259.7,117.5 259.7,115.5 250.5,115.5 				"/>
				<rect id="rect100" x="376.7" class="st0" width="1.4" height="127.6"/>
			</g>
		</g>
	</g>
</g>
</svg>
