<?xml version="1.0" encoding="utf-8"?>
<!-- Generator: Adobe Illustrator 27.9.0, SVG Export Plug-In . SVG Version: 6.00 Build 0)  -->
<svg version="1.1" id="Layer_1" xmlns="http://www.w3.org/2000/svg" xmlns:xlink="http://www.w3.org/1999/xlink" x="0px" y="0px"
	 width="432px" height="338.4px" viewBox="0 0 432 338.4" style="enable-background:new 0 0 432 338.4;" xml:space="preserve">
<style type="text/css">
	.st0{fill:#FFFFFF;}
</style>
<g>
	<g>
		<g>
			<path class="st0" d="M216.11,180.63c-0.15,0-0.3-0.06-0.41-0.17l-71.41-71.42c-0.23-0.23-0.23-0.6,0-0.82l71.41-71.42
				c0.22-0.22,0.61-0.22,0.83,0l71.41,71.42c0.23,0.23,0.23,0.6,0,0.82l-71.41,71.42C216.41,180.57,216.26,180.63,216.11,180.63z
				 M145.52,108.62l70.59,70.6l70.59-70.6l-70.59-70.59L145.52,108.62z"/>
		</g>
		<g>
			<path class="st0" d="M215.96,111.97c0.21,0,0.21,0,0.31,0l19.18-41.08l-19.34-19.31l-19.33,19.3L215.96,111.97z"/>
			<polygon class="st0" points="248.03,83.45 255.56,126.28 273.24,108.62 			"/>
			<path class="st0" d="M237.31,94.71c-0.1,0-0.31,0-0.31,0l-18.23,40.87c-0.21,0.63-0.83,1.14-1.77,1.14h-1.87
				c-0.94,0-1.46-0.52-1.77-1.14l-18.44-40.87c0,0-0.21,0-0.31,0l-6.67,42.82l28.18,28.13l27.94-27.89L237.31,94.71z"/>
			<polygon class="st0" points="184.16,83.48 158.97,108.62 176.58,126.2 			"/>
		</g>
	</g>
	<g>
		<g>
			<path class="st0" d="M72.85,256.01v-31.29h-0.32l-14.92,25.1h-1.14l-14.92-25.1h-0.32v31.29H36v-41.28h5.82l15.42,25.98h0.13
				l15.42-25.98h5.56v41.28H72.85z"/>
			<path class="st0" d="M112.14,227.91c-2.59-2.59-6.13-3.86-9.42-3.86c-5.69,0-10.37,4.43-10.37,11.25
				c0,6.89,4.87,11.32,10.75,11.32c4.49,0,7.78-2.34,9.73-4.36l3.41,3.16c-1.2,1.45-5.94,5.69-13.59,5.69
				c-8.53,0-15.87-6.19-15.87-15.8c0-9.42,7.21-15.68,15.93-15.68c4.61,0,9.23,1.58,12.83,4.87L112.14,227.91z"/>
			<path class="st0" d="M166.73,248.87c-4.49,4.42-11.31,8.22-19.78,8.22c-13.34,0-22.69-9.73-22.69-21.74
				c0-11.88,9.36-21.68,22.44-21.68c7.4,0,14.35,2.85,18.9,7.08l-3.73,3.67c-3.79-3.6-9.61-5.88-15.04-5.88
				c-9.86,0-16.81,7.65-16.81,16.88c0,9.29,7.02,16.81,17,16.81c6.57,0,12.26-3.04,16.06-6.95L166.73,248.87z"/>
			<path class="st0" d="M171.3,256.01l19.15-41.28h5.18l19.15,41.28h-6l-5.63-12.39h-20.61l-5.56,12.39H171.3z M184.51,239.19h16.69
				l-8.15-18.02h-0.38L184.51,239.19z"/>
			<path class="st0" d="M223.13,256.01v-41.28h22.76c5.31,0,8.98,1.45,11.57,4.17c2.02,2.15,3.16,4.93,3.16,8.09
				c0,5.56-3.79,9.92-9.61,11.5l10.18,17.51h-6.26l-9.48-16.81h-16.81v16.81H223.13z M228.62,219.6v14.73h18.65
				c4.55,0,7.9-3.35,7.9-7.4c0-1.83-0.76-3.54-1.96-4.8c-2.02-2.02-4.49-2.53-7.33-2.53H228.62z"/>
			<path class="st0" d="M266.4,214.73h37.55v4.87h-15.99v36.41h-5.5V219.6H266.4V214.73z"/>
			<path class="st0" d="M312.22,256.01v-41.28h5.5v16.43h25.35v-16.43h5.44v41.28h-5.44v-19.97h-25.35v19.97H312.22z"/>
			<path class="st0" d="M396,214.73l-16.94,21.93v19.34h-5.5v-19.34l-16.94-21.93h6.95l12.96,17.07l13.02-17.07H396z"/>
		</g>
		<g>
			<path class="st0" d="M149.28,301.77h-3.75v-21.85h12.04c2.79,0,4.89,0.77,6.32,2.31c1.16,1.23,1.74,2.69,1.74,4.38
				c0,1.45-0.44,2.72-1.31,3.8c-0.87,1.08-2.04,1.9-3.51,2.46l5.22,8.9h-4.32l-4.68-8.4h-7.76V301.77z M157.57,283.27h-8.3v6.76
				h8.97c0.98,0,1.83-0.33,2.56-1c0.72-0.67,1.09-1.47,1.09-2.41c0-0.8-0.3-1.53-0.9-2.17
				C160.23,283.66,159.09,283.27,157.57,283.27z"/>
			<path class="st0" d="M185.12,288.69v3.34h-8.4v6.39h14.79v3.34h-18.53v-21.85h17.73v3.35h-13.98v5.42H185.12z"/>
			<path class="st0" d="M196.15,301.77l10.14-21.85h3.41l10.14,21.85h-4.11l-2.64-5.89h-10.4l-2.61,5.89H196.15z M207.79,284.41
				l-3.78,8.46h7.73l-3.75-8.46H207.79z"/>
			<path class="st0" d="M225.57,279.93h3.75v18.5h13.42v3.34h-17.16V279.93z"/>
			<path class="st0" d="M242.72,283.27v-3.35h20.91v3.35h-8.56v18.5h-3.75v-18.5H242.72z"/>
			<path class="st0" d="M285.12,279.93h4.42l-8.97,11.77v10.07h-3.75V291.7l-8.97-11.77h4.75l6.26,8.43L285.12,279.93z"/>
		</g>
		<g>
			<rect x="72" y="289.72" class="st0" width="63.02" height="2.26"/>
			<rect x="296.99" y="289.72" class="st0" width="63.02" height="2.26"/>
		</g>
	</g>
</g>
</svg>
