<?xml version="1.0" encoding="utf-8"?>
<!-- Generator: Adobe Illustrator 27.9.0, SVG Export Plug-In . SVG Version: 6.00 Build 0)  -->
<svg version="1.1" id="Layer_1" xmlns="http://www.w3.org/2000/svg" xmlns:xlink="http://www.w3.org/1999/xlink" x="0px" y="0px"
	 width="200px" height="25px" viewBox="0 0 200 25" style="enable-background:new 0 0 200 25;" xml:space="preserve">
<style type="text/css">
	.st0{fill:#FFFFFF;}
</style>
<g id="g8" transform="matrix(0.395363, 0, 0, -0.395363, 1.273025, 22.496937)">
	<g id="g10" transform="scale(0.1)">
		<g id="g12" transform="scale(10)">
		</g>
		<path id="path14" class="st0" d="M0,505.8h81.2L348.4,161v344.8h86.2V7.1h-73.4l-275,354.8V7.1H0V505.8"/>
		<path id="path16" class="st0" d="M562.7,505.8h369.8v-78.4H650.3V297.8h250.1v-79.1H650.3V85.5H936V7.1H562.7V505.8"/>
		<path id="path18" class="st0" d="M1006.4,79.8l52.7,62.7c47.7-41.3,96.2-64.8,157.4-64.8c54.1,0,88.3,25.6,88.3,62.7v1.4
			c0,35.6-20,54.9-112.6,76.2c-106.2,25.6-166,57-166,148.9v1.4c0,85.5,71.2,144.6,170.3,144.6c72.7,0,130.4-22.1,180.9-62.7
			l-47-66.3c-44.9,33.5-89.8,51.3-135.4,51.3c-51.3,0-81.2-26.4-81.2-59.1v-1.4c0-38.5,22.8-55.5,119-78.3
			c105.4-25.7,159.6-63.4,159.6-146.1v-1.4c0-93.3-73.4-148.9-178.1-148.9C1138.2,0,1066.2,26.4,1006.4,79.8"/>
		<path id="path20" class="st0" d="M1607.6,424.6h-158.9v81.2h405.4v-81.2h-158.9V7.1h-87.6L1607.6,424.6"/>
		<path id="path22" class="st0" d="M2374.7,251.5c74.8,0,128.2,38.5,128.2,102.6v1.4c0,61.2-47,98.3-127.5,98.3h-153.9V251.5H2374.7
			z M2165.2,505.8h214.4c61.3,0,110.4-18.5,141.8-49.9c24.2-24.2,38.5-59.1,38.5-98.3v-1.4c0-82.6-57-131.1-135.4-145.3L2577.7,7.1
			h-69.1L2364,200.9h-142.5V7.1h-56.3V505.8"/>
		<path id="path24" class="st0" d="M2680.2,505.8h360.5v-51.3h-304.2V284.2h272.1v-51.3h-272.1V58.4h307.8V7.1h-364.1V505.8"/>
		<path id="path26" class="st0" d="M3480.8,189.5l-113.2,254.3l-114-254.3H3480.8z M3341.9,509.4h52.8L3621.9,7.1h-60.6l-58.4,131.8
			h-271.4L3172.3,7.1h-57.7L3341.9,509.4"/>
		<path id="path28" class="st0" d="M3720.1,505.8h56.2V59.1h280.8v-52h-337V505.8"/>
		<path id="path30" class="st0" d="M4222.2,453.8h-168.1v52h392.5v-52h-168.1V7.1h-56.3V453.8"/>
		<path id="path32" class="st0" d="M4705.1,204.5l-207.3,301.4h68.4l168.2-249.4l169.5,249.4h65.6l-207.3-300.7V7.1h-57V204.5"/>
	</g>
</g>
</svg>
